REM DIRINDEX 1\6,1\2\7,1\2\8,1\2\9,1\3\10,1\3\11,1\4\12,1\4\13,1\4\14,1\5\15,1\5\16,1\5\17
REM DIRNAME cjc041,folder01,folder02,folder03,folder04,folder05,folder06,folder07,folder08,folder09,folder10,folder11,folder12,folder13,folder14,folder15,folder16
TITLE ""
FILE "3Q_t2_0174-0189.mp3" MP3
  TRACK 01 AUDIO
    TITLE "7:cjc041_3934"
    INDEX 01 00:00:00
  TRACK 02 AUDIO
    TITLE "0:"
    INDEX 01 00:01:17
  TRACK 03 AUDIO
    TITLE "8:cjc041_3935"
    INDEX 01 00:01:69
  TRACK 04 AUDIO
    TITLE "0:"
    INDEX 01 00:03:02
  TRACK 05 AUDIO
    TITLE "9:cjc041_3936"
    INDEX 01 00:03:49
  TRACK 06 AUDIO
    TITLE "0:"
    INDEX 01 00:05:05
  TRACK 07 AUDIO
    TITLE "7:cjc041_3937"
    INDEX 01 00:06:59
  TRACK 08 AUDIO
    TITLE "0:"
    INDEX 01 00:07:68
  TRACK 09 AUDIO
    TITLE "8:cjc041_3938"
    INDEX 01 00:08:44
  TRACK 10 AUDIO
    TITLE "0:"
    INDEX 01 00:09:40
  TRACK 11 AUDIO
    TITLE "9:cjc041_3939"
    INDEX 01 00:10:23
  TRACK 12 AUDIO
    TITLE "0:"
    INDEX 01 00:11:35
  TRACK 13 AUDIO
    TITLE "7:cjc041_3940"
    INDEX 01 00:13:18
  TRACK 14 AUDIO
    TITLE "0:"
    INDEX 01 00:14:37
  TRACK 15 AUDIO
    TITLE "8:cjc041_3941"
    INDEX 01 00:15:11
  TRACK 16 AUDIO
    TITLE "0:"
    INDEX 01 00:16:10
  TRACK 17 AUDIO
    TITLE "9:cjc041_3942"
    INDEX 01 00:16:63
  TRACK 18 AUDIO
    TITLE "0:"
    INDEX 01 00:18:11
  TRACK 19 AUDIO
    TITLE "7:cjc041_3943"
    INDEX 01 00:19:63
  TRACK 20 AUDIO
    TITLE "0:"
    INDEX 01 00:21:02
  TRACK 21 AUDIO
    TITLE "8:cjc041_3944"
    INDEX 01 00:21:51
  TRACK 22 AUDIO
    TITLE "0:"
    INDEX 01 00:23:44
  TRACK 23 AUDIO
    TITLE "9:cjc041_3945"
    INDEX 01 00:24:18
  TRACK 24 AUDIO
    TITLE "0:"
    INDEX 01 00:25:35
  TRACK 25 AUDIO
    TITLE "7:cjc041_3946"
    INDEX 01 00:27:12
  TRACK 26 AUDIO
    TITLE "0:"
    INDEX 01 00:28:19
  TRACK 27 AUDIO
    TITLE "8:cjc041_3947"
    INDEX 01 00:28:74
  TRACK 28 AUDIO
    TITLE "0:"
    INDEX 01 00:29:68
  TRACK 29 AUDIO
    TITLE "9:cjc041_3948"
    INDEX 01 00:30:52
  TRACK 30 AUDIO
    TITLE "0:"
    INDEX 01 00:31:59
  TRACK 31 AUDIO
    TITLE "7:cjc041_3949"
    INDEX 01 00:33:44
  TRACK 32 AUDIO
    TITLE "0:"
    INDEX 01 00:34:61
  TRACK 33 AUDIO
    TITLE "8:cjc041_3950"
    INDEX 01 00:35:41
  TRACK 34 AUDIO
    TITLE "0:"
    INDEX 01 00:37:50
  TRACK 35 AUDIO
    TITLE "9:cjc041_3951"
    INDEX 01 00:38:28
  TRACK 36 AUDIO
    TITLE "0:"
    INDEX 01 00:39:47
  TRACK 37 AUDIO
    TITLE "7:cjc041_3952"
    INDEX 01 00:41:28
  TRACK 38 AUDIO
    TITLE "0:"
    INDEX 01 00:42:41
  TRACK 39 AUDIO
    TITLE "8:cjc041_3953"
    INDEX 01 00:43:23
  TRACK 40 AUDIO
    TITLE "0:"
    INDEX 01 00:44:38
  TRACK 41 AUDIO
    TITLE "9:cjc041_3954"
    INDEX 01 00:45:20
  TRACK 42 AUDIO
    TITLE "0:"
    INDEX 01 00:46:31
  TRACK 43 AUDIO
    TITLE "7:cjc041_3955"
    INDEX 01 00:48:14
  TRACK 44 AUDIO
    TITLE "0:"
    INDEX 01 00:49:37
  TRACK 45 AUDIO
    TITLE "8:cjc041_3956"
    INDEX 01 00:50:11
  TRACK 46 AUDIO
    TITLE "0:"
    INDEX 01 00:51:28
  TRACK 47 AUDIO
    TITLE "9:cjc041_3957"
    INDEX 01 00:52:08
  TRACK 48 AUDIO
    TITLE "0:"
    INDEX 01 00:53:29
  TRACK 49 AUDIO
    TITLE "7:cjc041_3958"
    INDEX 01 00:55:10
  TRACK 50 AUDIO
    TITLE "0:"
    INDEX 01 00:56:37
  TRACK 51 AUDIO
    TITLE "8:cjc041_3959"
    INDEX 01 00:57:11
  TRACK 52 AUDIO
    TITLE "0:"
    INDEX 01 00:58:07
  TRACK 53 AUDIO
    TITLE "9:cjc041_3960"
    INDEX 01 00:58:58
  TRACK 54 AUDIO
    TITLE "0:"
    INDEX 01 01:00:13
  TRACK 55 AUDIO
    TITLE "7:cjc041_3961"
    INDEX 01 01:01:68
  TRACK 56 AUDIO
    TITLE "0:"
    INDEX 01 01:03:04
  TRACK 57 AUDIO
    TITLE "8:cjc041_3962"
    INDEX 01 01:03:55
  TRACK 58 AUDIO
    TITLE "0:"
    INDEX 01 01:04:54
  TRACK 59 AUDIO
    TITLE "9:cjc041_3963"
    INDEX 01 01:05:26
  TRACK 60 AUDIO
    TITLE "0:"
    INDEX 01 01:06:43
  TRACK 61 AUDIO
    TITLE "7:cjc041_3964"
    INDEX 01 01:08:21
  TRACK 62 AUDIO
    TITLE "0:"
    INDEX 01 01:09:44
  TRACK 63 AUDIO
    TITLE "8:cjc041_3965"
    INDEX 01 01:10:30
  TRACK 64 AUDIO
    TITLE "0:"
    INDEX 01 01:11:35
  TRACK 65 AUDIO
    TITLE "9:cjc041_3966"
    INDEX 01 01:12:13
  TRACK 66 AUDIO
    TITLE "0:"
    INDEX 01 01:13:38
  TRACK 67 AUDIO
    TITLE "7:cjc041_3967"
    INDEX 01 01:15:21
  TRACK 68 AUDIO
    TITLE "0:"
    INDEX 01 01:16:32
  TRACK 69 AUDIO
    TITLE "8:cjc041_3968"
    INDEX 01 01:17:08
  TRACK 70 AUDIO
    TITLE "0:"
    INDEX 01 01:18:23
  TRACK 71 AUDIO
    TITLE "9:cjc041_3969"
    INDEX 01 01:18:74
  TRACK 72 AUDIO
    TITLE "0:"
    INDEX 01 01:20:12
  TRACK 73 AUDIO
    TITLE "7:cjc041_3970"
    INDEX 01 01:21:70
  TRACK 74 AUDIO
    TITLE "0:"
    INDEX 01 01:23:18
  TRACK 75 AUDIO
    TITLE "8:cjc041_3971"
    INDEX 01 01:23:69
  TRACK 76 AUDIO
    TITLE "0:"
    INDEX 01 01:25:02
  TRACK 77 AUDIO
    TITLE "9:cjc041_3972"
    INDEX 01 01:25:57
  TRACK 78 AUDIO
    TITLE "0:"
    INDEX 01 01:27:06
  TRACK 79 AUDIO
    TITLE "7:cjc041_3973"
    INDEX 01 01:28:61
  TRACK 80 AUDIO
    TITLE "0:"
    INDEX 01 01:29:74
  TRACK 81 AUDIO
    TITLE "8:cjc041_3974"
    INDEX 01 01:30:52
  TRACK 82 AUDIO
    TITLE "0:"
    INDEX 01 01:31:55
  TRACK 83 AUDIO
    TITLE "9:cjc041_3975"
    INDEX 01 01:32:33
  TRACK 84 AUDIO
    TITLE "0:"
    INDEX 01 01:33:52
  TRACK 85 AUDIO
    TITLE "7:cjc041_3976"
    INDEX 01 01:35:31
  TRACK 86 AUDIO
    TITLE "0:"
    INDEX 01 01:36:47
  TRACK 87 AUDIO
    TITLE "8:cjc041_3977"
    INDEX 01 01:37:19
  TRACK 88 AUDIO
    TITLE "0:"
    INDEX 01 01:39:15
  TRACK 89 AUDIO
    TITLE "9:cjc041_3978"
    INDEX 01 01:39:68
  TRACK 90 AUDIO
    TITLE "0:"
    INDEX 01 01:41:07
  TRACK 91 AUDIO
    TITLE "7:cjc041_3979"
    INDEX 01 01:42:61
  TRACK 92 AUDIO
    TITLE "0:"
    INDEX 01 01:44:05
  TRACK 93 AUDIO
    TITLE "8:cjc041_3980"
    INDEX 01 01:44:62
  TRACK 94 AUDIO
    TITLE "0:"
    INDEX 01 01:47:11
  TRACK 95 AUDIO
    TITLE "9:cjc041_3981"
    INDEX 01 01:47:56
  TRACK 96 AUDIO
    TITLE "0:"
    INDEX 01 01:49:04
